<mxfile host="app.diagrams.net" modified="2021-09-14T16:01:58.163Z" agent="5.0 (Windows NT 10.0; Win64; x64) AppleWebKit/537.36 (KHTML, like Gecko) Chrome/93.0.4577.63 Safari/537.36 Edg/93.0.961.47" etag="1Mm81jzBs_gwRA1IjoiK" version="15.2.5" type="github">
  <diagram id="YRgkAbb3Nys_o7lvn9jT" name="Page-1">
    <mxGraphModel dx="941" dy="633" grid="1" gridSize="10" guides="1" tooltips="1" connect="1" arrows="1" fold="1" page="1" pageScale="1" pageWidth="1169" pageHeight="827" math="0" shadow="0">
      <root>
        <mxCell id="0" />
        <mxCell id="1" parent="0" />
        <mxCell id="zPuTPYfnhfSHurRMcbCM-39" value="" style="rounded=0;whiteSpace=wrap;html=1;fillColor=#E6CCFF;gradientColor=#ffffff;" vertex="1" parent="1">
          <mxGeometry x="1800" y="280" width="280" height="531" as="geometry" />
        </mxCell>
        <mxCell id="zPuTPYfnhfSHurRMcbCM-4" value="" style="rounded=0;whiteSpace=wrap;html=1;fillColor=#E6CCFF;gradientColor=#ffffff;" vertex="1" parent="1">
          <mxGeometry x="520" y="1520" width="280" height="531" as="geometry" />
        </mxCell>
        <mxCell id="zPuTPYfnhfSHurRMcbCM-3" value="" style="rounded=0;whiteSpace=wrap;html=1;fillColor=#E6CCFF;gradientColor=#ffffff;" vertex="1" parent="1">
          <mxGeometry x="80" y="119" width="280" height="531" as="geometry" />
        </mxCell>
        <mxCell id="zPuTPYfnhfSHurRMcbCM-2" value="" style="rounded=0;whiteSpace=wrap;html=1;fillColor=#E6CCFF;gradientColor=#ffffff;" vertex="1" parent="1">
          <mxGeometry x="520" y="860" width="280" height="531" as="geometry" />
        </mxCell>
        <mxCell id="zPuTPYfnhfSHurRMcbCM-1" value="" style="rounded=0;whiteSpace=wrap;html=1;fillColor=#E6CCFF;gradientColor=#ffffff;" vertex="1" parent="1">
          <mxGeometry x="960" y="119" width="280" height="531" as="geometry" />
        </mxCell>
        <mxCell id="IE7dMCVUD9d3y6NUQeAl-4" value="Splash" style="text;html=1;strokeColor=none;fillColor=none;align=center;verticalAlign=middle;whiteSpace=wrap;rounded=0;" parent="1" vertex="1">
          <mxGeometry x="145" y="80" width="150" height="20" as="geometry" />
        </mxCell>
        <mxCell id="IE7dMCVUD9d3y6NUQeAl-7" value="" style="rounded=0;whiteSpace=wrap;html=1;fillColor=#E6CCFF;gradientColor=#ffffff;" parent="1" vertex="1">
          <mxGeometry x="520" y="119" width="280" height="531" as="geometry" />
        </mxCell>
        <mxCell id="IE7dMCVUD9d3y6NUQeAl-10" value="" style="rounded=0;whiteSpace=wrap;html=1;fillColor=default;strokeColor=none;" parent="1" vertex="1">
          <mxGeometry x="155" y="200" width="130" height="120" as="geometry" />
        </mxCell>
        <mxCell id="IE7dMCVUD9d3y6NUQeAl-11" value="placeholder" style="text;html=1;strokeColor=none;fillColor=none;align=center;verticalAlign=middle;whiteSpace=wrap;rounded=0;" parent="1" vertex="1">
          <mxGeometry x="170" y="220" width="110" height="20" as="geometry" />
        </mxCell>
        <mxCell id="IE7dMCVUD9d3y6NUQeAl-12" value="How do you feel?" style="text;html=1;strokeColor=none;fillColor=none;align=center;verticalAlign=middle;whiteSpace=wrap;rounded=0;" parent="1" vertex="1">
          <mxGeometry x="570" y="80" width="180" height="20" as="geometry" />
        </mxCell>
        <mxCell id="IE7dMCVUD9d3y6NUQeAl-13" value="" style="ellipse;whiteSpace=wrap;html=1;aspect=fixed;strokeColor=none;" parent="1" vertex="1">
          <mxGeometry x="620" y="344.5" width="80" height="80" as="geometry" />
        </mxCell>
        <mxCell id="IE7dMCVUD9d3y6NUQeAl-14" value="" style="ellipse;whiteSpace=wrap;html=1;aspect=fixed;strokeColor=none;" parent="1" vertex="1">
          <mxGeometry x="620" y="245" width="80" height="80" as="geometry" />
        </mxCell>
        <mxCell id="IE7dMCVUD9d3y6NUQeAl-15" value="" style="ellipse;whiteSpace=wrap;html=1;aspect=fixed;strokeColor=none;" parent="1" vertex="1">
          <mxGeometry x="620" y="140" width="80" height="80" as="geometry" />
        </mxCell>
        <mxCell id="IE7dMCVUD9d3y6NUQeAl-16" value="" style="ellipse;whiteSpace=wrap;html=1;aspect=fixed;strokeColor=none;" parent="1" vertex="1">
          <mxGeometry x="620" y="450" width="80" height="80" as="geometry" />
        </mxCell>
        <mxCell id="IE7dMCVUD9d3y6NUQeAl-17" value="" style="ellipse;whiteSpace=wrap;html=1;aspect=fixed;strokeColor=none;" parent="1" vertex="1">
          <mxGeometry x="620" y="550" width="80" height="80" as="geometry" />
        </mxCell>
        <mxCell id="IE7dMCVUD9d3y6NUQeAl-22" value="Would you like assitance?" style="text;html=1;strokeColor=none;fillColor=none;align=center;verticalAlign=middle;whiteSpace=wrap;rounded=0;" parent="1" vertex="1">
          <mxGeometry x="560" y="827" width="190" height="20" as="geometry" />
        </mxCell>
        <mxCell id="IE7dMCVUD9d3y6NUQeAl-23" value="" style="ellipse;whiteSpace=wrap;html=1;aspect=fixed;strokeColor=none;" parent="1" vertex="1">
          <mxGeometry x="560" y="940" width="80" height="80" as="geometry" />
        </mxCell>
        <mxCell id="IE7dMCVUD9d3y6NUQeAl-24" value="" style="ellipse;whiteSpace=wrap;html=1;aspect=fixed;strokeColor=none;" parent="1" vertex="1">
          <mxGeometry x="670" y="940" width="80" height="80" as="geometry" />
        </mxCell>
        <mxCell id="IE7dMCVUD9d3y6NUQeAl-26" value="" style="endArrow=classic;html=1;" parent="1" edge="1">
          <mxGeometry width="50" height="50" relative="1" as="geometry">
            <mxPoint x="650" y="670" as="sourcePoint" />
            <mxPoint x="650" y="780" as="targetPoint" />
          </mxGeometry>
        </mxCell>
        <mxCell id="IE7dMCVUD9d3y6NUQeAl-27" value="" style="endArrow=classic;html=1;" parent="1" edge="1">
          <mxGeometry width="50" height="50" relative="1" as="geometry">
            <mxPoint x="654.5" y="1380" as="sourcePoint" />
            <mxPoint x="654.5" y="1490" as="targetPoint" />
          </mxGeometry>
        </mxCell>
        <mxCell id="IE7dMCVUD9d3y6NUQeAl-28" value="Useful Phone Numbers" style="text;html=1;strokeColor=none;fillColor=none;align=center;verticalAlign=middle;whiteSpace=wrap;rounded=0;" parent="1" vertex="1">
          <mxGeometry x="565" y="1490" width="180" height="20" as="geometry" />
        </mxCell>
        <mxCell id="cOUb73bqv5FOIlY1n4ka-1" value="Yes" style="text;html=1;strokeColor=none;fillColor=none;align=center;verticalAlign=middle;whiteSpace=wrap;rounded=0;" parent="1" vertex="1">
          <mxGeometry x="580" y="970" width="40" height="20" as="geometry" />
        </mxCell>
        <mxCell id="cOUb73bqv5FOIlY1n4ka-2" value="No" style="text;html=1;strokeColor=none;fillColor=none;align=center;verticalAlign=middle;whiteSpace=wrap;rounded=0;" parent="1" vertex="1">
          <mxGeometry x="690" y="970" width="40" height="20" as="geometry" />
        </mxCell>
        <mxCell id="cOUb73bqv5FOIlY1n4ka-3" value="" style="rounded=1;whiteSpace=wrap;html=1;strokeColor=none;" parent="1" vertex="1">
          <mxGeometry x="560" y="1560" width="200" height="40" as="geometry" />
        </mxCell>
        <mxCell id="cOUb73bqv5FOIlY1n4ka-4" value="" style="rounded=1;whiteSpace=wrap;html=1;strokeColor=none;" parent="1" vertex="1">
          <mxGeometry x="560" y="1640" width="200" height="40" as="geometry" />
        </mxCell>
        <mxCell id="cOUb73bqv5FOIlY1n4ka-5" value="" style="rounded=1;whiteSpace=wrap;html=1;strokeColor=none;" parent="1" vertex="1">
          <mxGeometry x="560" y="1720" width="200" height="40" as="geometry" />
        </mxCell>
        <mxCell id="cOUb73bqv5FOIlY1n4ka-6" value="" style="rounded=1;whiteSpace=wrap;html=1;strokeColor=none;" parent="1" vertex="1">
          <mxGeometry x="560" y="1800" width="200" height="40" as="geometry" />
        </mxCell>
        <mxCell id="cOUb73bqv5FOIlY1n4ka-7" value="Quote Page" style="text;html=1;strokeColor=none;fillColor=none;align=center;verticalAlign=middle;whiteSpace=wrap;rounded=0;" parent="1" vertex="1">
          <mxGeometry x="1035" y="80" width="130" height="20" as="geometry" />
        </mxCell>
        <mxCell id="zPuTPYfnhfSHurRMcbCM-7" value="" style="rounded=1;whiteSpace=wrap;html=1;strokeColor=none;" vertex="1" parent="1">
          <mxGeometry x="980" y="255" width="240" height="65" as="geometry" />
        </mxCell>
        <mxCell id="cOUb73bqv5FOIlY1n4ka-8" value="&lt;font style=&quot;font-size: 17px&quot; color=&quot;#b3b3b3&quot;&gt;&quot;An Inspirational Quote...&quot;&lt;br&gt;- an inspirational person&lt;/font&gt;" style="text;html=1;strokeColor=none;fillColor=none;align=center;verticalAlign=middle;whiteSpace=wrap;rounded=0;" parent="1" vertex="1">
          <mxGeometry x="995" y="245" width="210" height="90" as="geometry" />
        </mxCell>
        <mxCell id="cOUb73bqv5FOIlY1n4ka-9" value="Task Page" style="text;html=1;strokeColor=none;fillColor=none;align=center;verticalAlign=middle;whiteSpace=wrap;rounded=0;" parent="1" vertex="1">
          <mxGeometry x="1415" y="80" width="250" height="20" as="geometry" />
        </mxCell>
        <mxCell id="zPuTPYfnhfSHurRMcbCM-6" value="(Faces)" style="text;html=1;strokeColor=none;fillColor=none;align=center;verticalAlign=middle;whiteSpace=wrap;rounded=0;" vertex="1" parent="1">
          <mxGeometry x="610" y="165" width="100" height="30" as="geometry" />
        </mxCell>
        <mxCell id="zPuTPYfnhfSHurRMcbCM-12" value="" style="rounded=0;whiteSpace=wrap;html=1;fillColor=#E6CCFF;gradientColor=#ffffff;" vertex="1" parent="1">
          <mxGeometry x="1400" y="119" width="280" height="531" as="geometry" />
        </mxCell>
        <mxCell id="zPuTPYfnhfSHurRMcbCM-13" value="" style="rounded=0;whiteSpace=wrap;html=1;strokeColor=default;fillColor=none;" vertex="1" parent="1">
          <mxGeometry x="1400" y="119" width="280" height="81" as="geometry" />
        </mxCell>
        <mxCell id="zPuTPYfnhfSHurRMcbCM-15" value="" style="whiteSpace=wrap;html=1;aspect=fixed;strokeColor=default;fillColor=default;gradientColor=none;" vertex="1" parent="1">
          <mxGeometry x="1415" y="134.5" width="50" height="50" as="geometry" />
        </mxCell>
        <mxCell id="zPuTPYfnhfSHurRMcbCM-17" value="LVL" style="text;html=1;strokeColor=none;fillColor=none;align=center;verticalAlign=middle;whiteSpace=wrap;rounded=0;" vertex="1" parent="1">
          <mxGeometry x="1625" y="164.75" width="35" height="20.5" as="geometry" />
        </mxCell>
        <mxCell id="zPuTPYfnhfSHurRMcbCM-19" value="" style="shape=umlActor;verticalLabelPosition=bottom;verticalAlign=top;html=1;outlineConnect=0;strokeColor=default;fillColor=none;gradientColor=none;" vertex="1" parent="1">
          <mxGeometry x="1433.75" y="147" width="12.5" height="25" as="geometry" />
        </mxCell>
        <mxCell id="zPuTPYfnhfSHurRMcbCM-23" value="" style="rounded=1;whiteSpace=wrap;html=1;strokeColor=none;" vertex="1" parent="1">
          <mxGeometry x="1440" y="240" width="200" height="40" as="geometry" />
        </mxCell>
        <mxCell id="zPuTPYfnhfSHurRMcbCM-24" value="" style="rounded=1;whiteSpace=wrap;html=1;strokeColor=none;" vertex="1" parent="1">
          <mxGeometry x="1440" y="320" width="200" height="40" as="geometry" />
        </mxCell>
        <mxCell id="zPuTPYfnhfSHurRMcbCM-25" value="" style="rounded=1;whiteSpace=wrap;html=1;strokeColor=none;" vertex="1" parent="1">
          <mxGeometry x="1440" y="400" width="200" height="40" as="geometry" />
        </mxCell>
        <mxCell id="zPuTPYfnhfSHurRMcbCM-28" value="" style="rounded=1;whiteSpace=wrap;html=1;strokeColor=default;fillColor=none;gradientColor=none;" vertex="1" parent="1">
          <mxGeometry x="1480" y="165" width="180" height="21" as="geometry" />
        </mxCell>
        <mxCell id="zPuTPYfnhfSHurRMcbCM-29" value="" style="rounded=1;whiteSpace=wrap;html=1;strokeColor=none;fillColor=#d5e8d4;" vertex="1" parent="1">
          <mxGeometry x="1480" y="165.25" width="40" height="20" as="geometry" />
        </mxCell>
        <mxCell id="zPuTPYfnhfSHurRMcbCM-31" value="&lt;font style=&quot;font-size: 8px&quot;&gt;50/200&lt;/font&gt;" style="text;html=1;strokeColor=none;fillColor=none;align=center;verticalAlign=middle;whiteSpace=wrap;rounded=0;" vertex="1" parent="1">
          <mxGeometry x="1620" y="147" width="40" height="14.75" as="geometry" />
        </mxCell>
        <mxCell id="zPuTPYfnhfSHurRMcbCM-33" value="" style="rounded=0;whiteSpace=wrap;html=1;strokeColor=default;fillColor=#CCCCCC;gradientColor=none;glass=0;shadow=0;sketch=1;" vertex="1" parent="1">
          <mxGeometry x="1770" y="870" width="280" height="160" as="geometry" />
        </mxCell>
        <mxCell id="zPuTPYfnhfSHurRMcbCM-34" value="" style="rounded=1;whiteSpace=wrap;html=1;shadow=0;glass=0;sketch=0;strokeColor=none;" vertex="1" parent="1">
          <mxGeometry x="1785" y="880" width="70" height="60" as="geometry" />
        </mxCell>
        <mxCell id="zPuTPYfnhfSHurRMcbCM-35" value="" style="rounded=1;whiteSpace=wrap;html=1;shadow=0;glass=0;sketch=0;strokeColor=none;" vertex="1" parent="1">
          <mxGeometry x="1875" y="880" width="70" height="60" as="geometry" />
        </mxCell>
        <mxCell id="zPuTPYfnhfSHurRMcbCM-36" value="placeholder" style="text;html=1;strokeColor=none;fillColor=none;align=center;verticalAlign=middle;whiteSpace=wrap;rounded=0;shadow=0;glass=0;sketch=0;" vertex="1" parent="1">
          <mxGeometry x="1440" y="670" width="180" height="20" as="geometry" />
        </mxCell>
        <mxCell id="zPuTPYfnhfSHurRMcbCM-37" value="" style="rounded=1;whiteSpace=wrap;html=1;shadow=0;glass=0;sketch=0;strokeColor=none;" vertex="1" parent="1">
          <mxGeometry x="1965" y="880" width="70" height="60" as="geometry" />
        </mxCell>
        <mxCell id="zPuTPYfnhfSHurRMcbCM-40" value="" style="rounded=0;whiteSpace=wrap;html=1;strokeColor=default;fillColor=none;" vertex="1" parent="1">
          <mxGeometry x="1800" y="280" width="280" height="81" as="geometry" />
        </mxCell>
        <mxCell id="zPuTPYfnhfSHurRMcbCM-41" value="" style="whiteSpace=wrap;html=1;aspect=fixed;strokeColor=default;fillColor=default;gradientColor=none;" vertex="1" parent="1">
          <mxGeometry x="1815" y="295.5" width="50" height="50" as="geometry" />
        </mxCell>
        <mxCell id="zPuTPYfnhfSHurRMcbCM-42" value="LVL" style="text;html=1;strokeColor=none;fillColor=none;align=center;verticalAlign=middle;whiteSpace=wrap;rounded=0;" vertex="1" parent="1">
          <mxGeometry x="2025" y="325.75" width="35" height="20.5" as="geometry" />
        </mxCell>
        <mxCell id="zPuTPYfnhfSHurRMcbCM-43" value="" style="shape=umlActor;verticalLabelPosition=bottom;verticalAlign=top;html=1;outlineConnect=0;strokeColor=default;fillColor=none;gradientColor=none;" vertex="1" parent="1">
          <mxGeometry x="1833.75" y="308" width="12.5" height="25" as="geometry" />
        </mxCell>
        <mxCell id="zPuTPYfnhfSHurRMcbCM-44" value="" style="rounded=1;whiteSpace=wrap;html=1;strokeColor=none;" vertex="1" parent="1">
          <mxGeometry x="1815" y="441.5" width="200" height="40" as="geometry" />
        </mxCell>
        <mxCell id="zPuTPYfnhfSHurRMcbCM-45" value="" style="rounded=1;whiteSpace=wrap;html=1;strokeColor=none;" vertex="1" parent="1">
          <mxGeometry x="1815" y="521.5" width="200" height="40" as="geometry" />
        </mxCell>
        <mxCell id="zPuTPYfnhfSHurRMcbCM-46" value="" style="rounded=1;whiteSpace=wrap;html=1;strokeColor=none;" vertex="1" parent="1">
          <mxGeometry x="1815" y="601.5" width="200" height="40" as="geometry" />
        </mxCell>
        <mxCell id="zPuTPYfnhfSHurRMcbCM-47" value="" style="rounded=1;whiteSpace=wrap;html=1;strokeColor=default;fillColor=none;gradientColor=none;" vertex="1" parent="1">
          <mxGeometry x="1880" y="326" width="180" height="21" as="geometry" />
        </mxCell>
        <mxCell id="zPuTPYfnhfSHurRMcbCM-48" value="" style="rounded=1;whiteSpace=wrap;html=1;strokeColor=none;fillColor=#d5e8d4;" vertex="1" parent="1">
          <mxGeometry x="1880" y="326.25" width="40" height="20" as="geometry" />
        </mxCell>
        <mxCell id="zPuTPYfnhfSHurRMcbCM-49" value="&lt;font style=&quot;font-size: 8px&quot;&gt;50/200&lt;/font&gt;" style="text;html=1;strokeColor=none;fillColor=none;align=center;verticalAlign=middle;whiteSpace=wrap;rounded=0;" vertex="1" parent="1">
          <mxGeometry x="2020" y="308" width="40" height="14.75" as="geometry" />
        </mxCell>
        <mxCell id="zPuTPYfnhfSHurRMcbCM-51" value="" style="rounded=0;whiteSpace=wrap;html=1;fillColor=#E6CCFF;gradientColor=#ffffff;" vertex="1" parent="1">
          <mxGeometry x="2240" y="280.5" width="280" height="531" as="geometry" />
        </mxCell>
        <mxCell id="zPuTPYfnhfSHurRMcbCM-52" value="" style="rounded=0;whiteSpace=wrap;html=1;strokeColor=default;fillColor=none;" vertex="1" parent="1">
          <mxGeometry x="2240" y="280.5" width="280" height="81" as="geometry" />
        </mxCell>
        <mxCell id="zPuTPYfnhfSHurRMcbCM-53" value="" style="whiteSpace=wrap;html=1;aspect=fixed;strokeColor=default;fillColor=default;gradientColor=none;" vertex="1" parent="1">
          <mxGeometry x="2255" y="296" width="50" height="50" as="geometry" />
        </mxCell>
        <mxCell id="zPuTPYfnhfSHurRMcbCM-54" value="LVL" style="text;html=1;strokeColor=none;fillColor=none;align=center;verticalAlign=middle;whiteSpace=wrap;rounded=0;" vertex="1" parent="1">
          <mxGeometry x="2465" y="326.25" width="35" height="20.5" as="geometry" />
        </mxCell>
        <mxCell id="zPuTPYfnhfSHurRMcbCM-55" value="" style="shape=umlActor;verticalLabelPosition=bottom;verticalAlign=top;html=1;outlineConnect=0;strokeColor=default;fillColor=none;gradientColor=none;" vertex="1" parent="1">
          <mxGeometry x="2273.75" y="308.5" width="12.5" height="25" as="geometry" />
        </mxCell>
        <mxCell id="zPuTPYfnhfSHurRMcbCM-56" value="" style="rounded=1;whiteSpace=wrap;html=1;strokeColor=none;" vertex="1" parent="1">
          <mxGeometry x="2280" y="441.5" width="200" height="40" as="geometry" />
        </mxCell>
        <mxCell id="zPuTPYfnhfSHurRMcbCM-57" value="" style="rounded=1;whiteSpace=wrap;html=1;strokeColor=none;" vertex="1" parent="1">
          <mxGeometry x="2280" y="521.5" width="200" height="40" as="geometry" />
        </mxCell>
        <mxCell id="zPuTPYfnhfSHurRMcbCM-58" value="" style="rounded=1;whiteSpace=wrap;html=1;strokeColor=none;" vertex="1" parent="1">
          <mxGeometry x="2280" y="601.5" width="200" height="40" as="geometry" />
        </mxCell>
        <mxCell id="zPuTPYfnhfSHurRMcbCM-59" value="" style="rounded=1;whiteSpace=wrap;html=1;strokeColor=default;fillColor=none;gradientColor=none;" vertex="1" parent="1">
          <mxGeometry x="2320" y="326.5" width="180" height="21" as="geometry" />
        </mxCell>
        <mxCell id="zPuTPYfnhfSHurRMcbCM-60" value="" style="rounded=1;whiteSpace=wrap;html=1;strokeColor=none;fillColor=#d5e8d4;" vertex="1" parent="1">
          <mxGeometry x="2320" y="326.75" width="40" height="20" as="geometry" />
        </mxCell>
        <mxCell id="zPuTPYfnhfSHurRMcbCM-61" value="&lt;font style=&quot;font-size: 8px&quot;&gt;50/200&lt;/font&gt;" style="text;html=1;strokeColor=none;fillColor=none;align=center;verticalAlign=middle;whiteSpace=wrap;rounded=0;" vertex="1" parent="1">
          <mxGeometry x="2460" y="308.5" width="40" height="14.75" as="geometry" />
        </mxCell>
        <mxCell id="zPuTPYfnhfSHurRMcbCM-62" value="" style="endArrow=none;html=1;" edge="1" parent="1">
          <mxGeometry width="50" height="50" relative="1" as="geometry">
            <mxPoint x="1770" y="170" as="sourcePoint" />
            <mxPoint x="2490" y="170" as="targetPoint" />
          </mxGeometry>
        </mxCell>
        <mxCell id="zPuTPYfnhfSHurRMcbCM-63" value="" style="endArrow=classic;html=1;" edge="1" parent="1">
          <mxGeometry width="50" height="50" relative="1" as="geometry">
            <mxPoint x="1970" y="190" as="sourcePoint" />
            <mxPoint x="1970" y="260" as="targetPoint" />
          </mxGeometry>
        </mxCell>
        <mxCell id="zPuTPYfnhfSHurRMcbCM-64" value="" style="endArrow=classic;html=1;" edge="1" parent="1">
          <mxGeometry width="50" height="50" relative="1" as="geometry">
            <mxPoint x="2360" y="190" as="sourcePoint" />
            <mxPoint x="2360" y="270" as="targetPoint" />
          </mxGeometry>
        </mxCell>
        <mxCell id="zPuTPYfnhfSHurRMcbCM-65" value="" style="ellipse;whiteSpace=wrap;html=1;aspect=fixed;rounded=0;shadow=0;glass=0;sketch=0;strokeColor=none;fillColor=#d5e8d4;" vertex="1" parent="1">
          <mxGeometry x="2030" y="606.5" width="30" height="30" as="geometry" />
        </mxCell>
        <mxCell id="zPuTPYfnhfSHurRMcbCM-66" value="" style="ellipse;whiteSpace=wrap;html=1;aspect=fixed;rounded=0;shadow=0;glass=0;sketch=0;strokeColor=none;fillColor=#d5e8d4;" vertex="1" parent="1">
          <mxGeometry x="2030" y="526.5" width="30" height="30" as="geometry" />
        </mxCell>
        <mxCell id="zPuTPYfnhfSHurRMcbCM-67" value="" style="ellipse;whiteSpace=wrap;html=1;aspect=fixed;rounded=0;shadow=0;glass=0;sketch=0;strokeColor=none;fillColor=#d5e8d4;" vertex="1" parent="1">
          <mxGeometry x="2027.5" y="446.5" width="30" height="30" as="geometry" />
        </mxCell>
      </root>
    </mxGraphModel>
  </diagram>
</mxfile>
